<?xml version="1.0" encoding="UTF-8" standalone="no"?>
<!-- Created with Inkscape (http://www.inkscape.org/) -->

<svg
   width="48"
   height="48"
   viewBox="0 0 48 48"
   version="1.1"
   id="svg1"
   inkscape:version="1.4.3 (0d15f75, 2025-12-25)"
   sodipodi:docname="drawing.svg"
   xmlns:inkscape="http://www.inkscape.org/namespaces/inkscape"
   xmlns:sodipodi="http://sodipodi.sourceforge.net/DTD/sodipodi-0.dtd"
   xmlns="http://www.w3.org/2000/svg"
   xmlns:svg="http://www.w3.org/2000/svg">
  <sodipodi:namedview
     id="namedview1"
     pagecolor="#ffffff"
     bordercolor="#000000"
     borderopacity="0.25"
     inkscape:showpageshadow="2"
     inkscape:pageopacity="0.0"
     inkscape:pagecheckerboard="0"
     inkscape:deskcolor="#d1d1d1"
     inkscape:document-units="px"
     showguides="false"
     showgrid="true"
     inkscape:zoom="11.387365"
     inkscape:cx="16.772975"
     inkscape:cy="24.544747"
     inkscape:window-width="1920"
     inkscape:window-height="991"
     inkscape:window-x="-9"
     inkscape:window-y="-9"
     inkscape:window-maximized="1"
     inkscape:current-layer="layer1">
    <inkscape:grid
       id="grid4"
       units="px"
       originx="0"
       originy="0"
       spacingx="1"
       spacingy="1"
       empcolor="#0099e5"
       empopacity="0.30196078"
       color="#0099e5"
       opacity="0.14901961"
       empspacing="5"
       enabled="true"
       visible="true" />
  </sodipodi:namedview>
  <defs
     id="defs1" />
  <g
     inkscape:label="Layer 1"
     inkscape:groupmode="layer"
     id="layer1">
    <text
       xml:space="preserve"
       style="writing-mode:lr-tb;direction:ltr;fill:#000000"
       x="12.853816"
       y="16.082794"
       id="text4"><tspan
         sodipodi:role="line"
         id="tspan4"></tspan></text>
    <ellipse
       style="fill:#000000"
       id="path5"
       cx="23.622671"
       cy="23.139681"
       rx="17.563326"
       ry="17.870684" />
    <path
       style="fill:#ff0000"
       d="M 5.8837139,11.064895 C 5.7373528,10.684356 5.5475469,10.31779 5.4446307,9.9232786 5.2560014,9.2001994 5.2821558,7.5200967 5.4446307,6.7618801 5.6026264,6.0245671 5.5792136,6.461537 5.7958972,5.8837139 5.8382752,5.770706 5.8238337,5.6372377 5.8837139,5.5324474 5.9453301,5.424619 6.0593471,5.3568141 6.1471637,5.2689975 6.2935248,5.1226364 6.4290915,4.9646189 6.5862469,4.8299144 7.0777312,4.4086421 8.0522446,4.3818696 8.6060292,4.5664645 c 0.1225314,0.040844 0.7526439,0.9131948 0.7903497,0.9659829 0.1656312,0.2318836 0.4638689,0.3905202 0.7025331,0.5268997 0.557351,0.3184866 1.312953,0.3303864 1.931966,0.1756333 0.425244,-0.1063112 1.277384,-0.8846351 1.492882,-1.2294328 0.138764,-0.2220217 0.206036,-0.4846867 0.351267,-0.702533 0.04593,-0.068889 0.138606,-0.1015798 0.175633,-0.1756332 0.255531,-0.511063 0.205912,-1.0901335 0.614716,-1.5806993 0.06757,-0.08108 0.18882,-0.1010034 0.26345,-0.1756332 0.07463,-0.07463 0.08782,-0.2049055 0.175633,-0.2634499 0.25557,-0.1703799 1.004496,-0.2574403 1.31725,-0.3512665 0.557526,-0.1672579 1.602599,-0.3951868 2.195415,-0.2634499 0.127792,0.028398 0.228693,0.1296679 0.351267,0.1756333 0.102067,0.038275 0.496771,0.1048659 0.614716,0.1756332 0.346785,0.2080709 0.62713,0.6395423 0.79035,0.9659829 0.03703,0.074054 0.149451,0.097088 0.175633,0.1756332 0.01851,0.05554 -0.02618,0.1232696 0,0.1756333 0.117089,0.2341777 0.08782,-0.2634499 0.08782,0.087817"
       id="path6" />
    <path
       style="fill:#ff0000"
       d="m 32.140885,6.1471637 c 1.002456,-1.467676 2.239603,-2.8053774 3.424848,-4.1273813 0.193441,-0.2157614 0.409811,-0.4098109 0.614716,-0.6147164 0.02927,-0.029272 0.04642,-0.087817 0.08782,-0.087817 0.02927,0 0.0036,0.05877 0,0.087817 -0.02567,0.2053874 -0.04967,0.4112758 -0.08782,0.6147164 -0.116393,0.6207635 -0.184843,1.3217465 -0.351266,1.9319657 -0.04148,0.1520812 -0.141437,0.2852012 -0.175633,0.4390831 -0.0254,0.1143006 -0.0828,0.2684722 0,0.3512665 0.06545,0.065455 0.174787,-0.061218 0.26345,-0.087817 0.204117,-0.061235 0.40981,-0.1170888 0.614716,-0.1756332 0.351266,-0.1463611 0.689499,-0.3291057 1.053799,-0.4390832 1.18958,-0.3591183 2.396644,-0.6580242 3.600482,-0.9659828 0.275213,-0.070403 0.292586,0.1174641 0.175633,0.4390831 -0.251978,0.6929413 -1.233571,1.5135736 -1.405066,2.3710489 -0.0069,0.034535 0.497963,-0.081725 0.5269,-0.087817 0.410124,-0.086342 0.814094,-0.2073229 1.229433,-0.2634498 1.082231,-0.1462475 1.947779,-0.1756333 2.985765,-0.1756333 0.02927,0 -0.06289,-0.015341 -0.08782,0 -0.359544,0.2212581 -0.697631,0.4758804 -1.053799,0.702533 -0.719519,0.4578757 -1.775159,0.809176 -2.371049,1.405066 -0.09257,0.092567 -0.108281,0.2390127 -0.175633,0.3512665 -0.0213,0.035498 -0.08782,0.046419 -0.08782,0.087817 0,0.029272 0.05854,0 0.08782,0 0.146361,0 0.292722,0 0.439083,0 0.204905,0 0.410066,0.010232 0.614716,0 0.846117,-0.042306 2.840238,-0.3656942 3.600482,-0.1756332 0.185279,0.04632 -0.195433,0.2662663 -0.351267,0.3512665 -0.863259,0.4708686 -1.770565,0.846013 -2.634498,1.3172494 -0.240879,0.1313884 -0.610954,0.353148 -0.439083,0.4390831 0.10795,0.053975 0.235664,0.053136 0.351266,0.087817 0.804196,0.2412583 1.548245,0.2246813 2.371049,0.3512663 0.284945,0.04384 0.994207,0.147409 0.79035,0.351267 -0.138851,0.13885 -0.360384,0.159377 -0.5269,0.263449 -0.124114,0.07757 -0.220357,0.197996 -0.351267,0.26345 -0.165588,0.0828 -0.354106,0.109174 -0.526899,0.175634 -0.673901,0.259192 -1.346307,0.537796 -2.019783,0.790349 -0.113008,0.04238 -0.240333,0.04027 -0.351266,0.08782 -0.09701,0.04157 -0.164628,0.138575 -0.26345,0.175633 -1.113626,0.222725 0.0889,-0.07574 -0.702533,0.26345 -0.393912,0.168819 -0.272936,0.0047 -0.614717,0.175633 -0.296898,0.14845 -0.427408,0.351267 -0.790349,0.351267"
       id="path7" />
    <path
       style="fill:#0000ff"
       d="m 11.503978,38.551498 c -1.8254832,0.770006 -3.4033807,1.836385 -5.0055478,2.985766 -0.5946197,0.426575 -1.2269771,0.811955 -1.7563325,1.317249 -0.1541506,0.147144 -0.3263211,0.464028 -0.1756332,0.614716 0.020699,0.0207 0.058723,0.0032 0.087817,0 0.2345567,-0.02606 0.4694209,-0.05101 0.702533,-0.08782 1.3217935,-0.208705 2.6250819,-0.519545 3.9517481,-0.702533 0.3202897,-0.04418 0.6432904,-0.06765 0.9659824,-0.08782 0.146076,-0.0091 0.292722,0 0.439083,0 0.02927,0 0.07473,-0.02618 0.08782,0 0.246387,0.492774 -0.550395,0.823731 -0.702533,1.229433 -0.05241,0.139756 -0.06328,0.291854 -0.08782,0.439083 -0.0048,0.02887 -0.020698,0.06712 0,0.08782 0.111465,0.111465 0.295034,-0.111612 0.439083,-0.175634 0.478978,-0.212879 1.066104,-0.433337 1.5807,-0.526899 0.959015,-0.174367 0.507073,0.427767 0.614716,0.965982 0.01076,0.05382 0.185548,0.558061 0.26345,0.5269 0.135893,-0.05436 0.223324,-0.192371 0.351266,-0.26345 0.137799,-0.07655 0.295034,-0.111611 0.439083,-0.175633 0.897267,-0.398785 0.865925,-0.512606 1.5807,-0.614716 0.05796,-0.0083 0.15389,-0.05436 0.175633,0 0.132274,0.330685 -0.07729,0.987037 0.175633,1.492882 0.01309,0.02618 -0.0207,0.06712 0,0.08782 0.132536,0.132535 0.291132,-0.236194 0.439083,-0.351267 0.489179,-0.380472 1.048625,-0.614716 1.668516,-0.614716 0.362289,0 1.204331,1.421774 1.405066,1.756333 0.04584,0.0764 0.07979,0.215528 0.175633,0.263449 0.335822,0.167911 0.480972,-0.54944 0.5269,-0.702533 0.0822,-0.273984 0.3099,-0.87273 0.351267,-1.141616 0.02671,-0.173591 -0.01459,-0.351873 0,-0.526899 0.01479,-0.177441 0.0701,-0.349728 0.08782,-0.5269 0.03283,-0.328291 -0.10864,-1.363419 0,-1.580699 0.06236,-0.124725 0.175634,-0.295603 0.175634,-0.439084"
       id="path8" />
    <path
       style="fill:#00ff00"
       d="m 29.155119,42.503246 1.229433,3.249216"
       id="path9" />
    <path
       style="fill:#00ff00"
       d="m 32.579968,40.307831 c -0.05855,0.321994 -0.133752,0.6414 -0.175633,0.965983 -0.23622,1.830698 -0.408635,1.942582 0.614716,3.688298 0.157364,0.268444 0.427527,0.760308 0.702533,0.614716 0.639214,-0.338407 0.918509,-1.904053 1.053799,-2.546682 0.03668,-0.174236 0.0082,-0.367642 0.08782,-0.5269 0.02927,-0.05854 0.05854,0.117089 0.08782,0.175634 0.238149,0.476298 1.199823,2.93709 1.844149,2.722315 0.341467,-0.113823 0.375077,-0.398887 0.5269,-0.702533 0.467505,-0.935011 0.439083,-1.162617 0.439083,-2.195416 0,-0.117088 0,-0.234177 0,-0.351266 0,-0.02927 -0.0071,-0.116215 0,-0.08782 0.177581,0.710325 0.316687,1.832623 1.141616,2.107599 0.211611,0.07054 0.548919,0.197466 0.702533,-0.08782 0.452355,-0.840088 0.520742,-1.944281 0.08782,-2.810132 -0.01309,-0.02618 -0.01624,0.06346 0,0.08782 0.162373,0.24356 0.311807,0.503986 0.5269,0.702533 0.300956,0.277806 1.316075,0.834846 1.756333,0.614717 0.457739,-0.22887 0.436312,-2.209272 0.351266,-2.634499 -0.03851,-0.192551 -0.190522,-0.34458 -0.26345,-0.5269 -0.04862,-0.121546 -0.08307,-0.443833 -0.175633,-0.351266 -0.05944,0.05944 0.773252,1.569974 1.405066,1.317249 0.222207,-0.08888 0.349441,-1.44494 0.26345,-1.668516 -0.09913,-0.257746 -0.278572,-0.477818 -0.439083,-0.702533 -0.06135,-0.08588 0.101003,0.18882 0.175633,0.26345 0.142465,0.142465 0.384047,0.290968 0.614716,0.175633 0.230464,-0.115231 0.26345,-0.775876 0.26345,-0.965983 0,-0.175633 0.03949,-0.355764 0,-0.526899 -0.171742,-0.744217 -0.751337,-1.635348 -1.492882,-1.931966 -0.432549,-0.17302 -1.10982,0.316064 -1.405066,0.439083 -0.111409,0.04642 -0.240333,0.04027 -0.351267,0.08782 -0.216918,0.09296 -0.430431,0.203838 -0.614716,0.351266 -0.05111,0.04089 -0.03545,0.136361 -0.08782,0.175633 -0.07405,0.05554 -0.197995,0.02236 -0.26345,0.08782 -0.06545,0.06546 -0.04642,0.180656 -0.08782,0.26345 -0.0944,0.1888 -0.268116,0.332882 -0.351267,0.5269 -0.06937,0.161865 -0.333882,0.948598 -0.439083,1.053799 -0.07753,0.07753 -1.233828,-0.103384 -1.405066,-0.08782 -0.552609,0.05024 -1.010888,0.263993 -1.492883,0.526899 -0.395882,0.215936 -0.848225,0.438282 -1.141616,0.79035 -0.468355,0.702533 0.146361,-0.146361 -0.439083,0.439083 -0.04628,0.04628 -0.03545,0.13636 -0.08782,0.175633 -0.07405,0.05554 -0.180656,0.04642 -0.26345,0.08782 -0.176564,0.08828 -0.324968,0.300784 -0.5269,0.351266 -0.0568,0.0142 -0.126921,-0.03247 -0.175633,0 -0.302723,0.201816 0.06789,0.175634 -0.175634,0.175634"
       id="path10" />
    <path
       style="fill:#00ff00"
       d="m 16.070442,15.367909 c 0.26345,0.819622 0.296644,1.753571 0.79035,2.458866 0.204217,0.291738 0.856264,0.471936 1.053799,0.175633 0.757282,-1.135922 0.701528,-2.392362 -0.351266,-3.073582 -0.22658,-0.14661 -0.53144,-0.251783 -0.79035,-0.175633 -0.298523,0.0878 -0.468355,0.409811 -0.702533,0.614716 z"
       id="path11" />
    <path
       style="fill:#00ff00"
       d="m 28.89167,15.280093 c -0.321995,0.117089 -0.716028,0.116933 -0.965983,0.351266 -1.373712,1.287855 0.771405,2.366668 1.756332,2.985765 0.249065,0.156556 0.72225,0.16165 0.878166,-0.08782 0.232714,-0.372342 0.05803,-0.882018 0,-1.31725 -0.06748,-0.506096 -0.221517,-1.581489 -0.878166,-1.844149 -0.246112,-0.09844 -0.527942,-0.05033 -0.790349,-0.08782 z"
       id="path12" />
    <path
       style="fill:#00ff00"
       d="m 17.826775,28.452586 c -0.02927,0.146361 -0.234178,0.409811 -0.08782,0.439084 0.146361,0.02927 0.124018,-0.583887 0.08782,-0.439084 -0.143699,0.574798 -0.266554,0.781039 -0.08782,1.31725 0.03627,0.108807 0.60497,1.368711 0.702533,1.492882 0.38706,0.492622 2.034961,1.404365 2.634499,1.5807 0.2543,0.07479 0.528211,0.0485 0.79035,0.08782 0.64227,0.09634 1.468981,0.300177 2.107599,0.351267 0.729474,0.05836 1.464151,0.02812 2.195415,0 1.452896,-0.05588 2.967256,-0.157622 4.303015,-0.79035 0.365354,-0.173063 0.626778,-0.598846 0.878166,-0.878166 0.688423,-0.764915 0.965983,-1.21504 0.965983,-2.283232 0,-0.175634 0.0426,-0.356511 0,-0.5269 -0.09181,-0.367257 -1.180163,-0.363407 -1.405066,-0.26345 -0.133746,0.05944 -0.227153,0.185879 -0.351267,0.26345 -0.343569,0.214731 -0.324657,0.10955 -0.614716,0.351266 -0.278271,0.231893 -0.455812,0.543629 -0.702533,0.79035 -0.54391,0.543911 -2.71112,0.656669 -3.424848,0.5269 -0.155093,-0.0282 -0.289537,-0.125785 -0.439083,-0.175633 -0.696161,-0.232054 -1.398896,-0.509251 -2.107599,-0.702533 -0.518406,-0.141384 -1.059551,-0.176592 -1.5807,-0.26345 -1.023634,-0.170606 -1.944321,-0.702533 -2.985765,-0.702533 -0.298519,0 -0.604676,-0.295286 -0.878166,-0.175634 -0.322931,0.141283 -0.453289,0.541106 -0.702533,0.79035 -0.141675,0.141675 -0.359608,0.167292 -0.08782,0.439083"
       id="path13" />
  </g>
</svg>
